<?xml version="1.0" standalone="no"?>
<!DOCTYPE svg PUBLIC "-//W3C//DTD SVG 20010904//EN"
 "http://www.w3.org/TR/2001/REC-SVG-20010904/DTD/svg10.dtd">
<svg version="1.0" xmlns="http://www.w3.org/2000/svg"
 width="102.000000pt" height="102.000000pt" viewBox="0 0 102.000000 102.000000"
 preserveAspectRatio="xMidYMid meet">

<g transform="translate(0.000000,102.000000) scale(0.100000,-0.100000)"
fill="#000000" stroke="none">
<path d="M371 984 c-12 -15 -21 -32 -21 -39 0 -6 -18 -17 -41 -24 -49 -15
-123 -80 -152 -136 -18 -34 -22 -61 -25 -179 -4 -126 -6 -139 -23 -143 -10 -3
-19 -14 -19 -24 0 -10 -5 -21 -11 -25 -10 -6 -8 -26 7 -76 4 -13 0 -18 -15
-18 -17 0 -21 -6 -21 -35 0 -38 36 -85 65 -85 12 0 15 -13 15 -60 l0 -60 -46
0 -45 0 3 -38 3 -37 465 0 465 0 3 37 c3 37 3 37 -40 40 l-43 3 -3 58 c-2 47
0 57 13 57 29 0 65 46 65 85 0 29 -4 35 -21 35 -15 0 -19 5 -15 18 15 52 17
72 7 72 -6 0 -11 11 -11 24 0 15 -7 26 -20 29 -19 5 -20 14 -20 134 0 114 -3
134 -24 179 -31 66 -87 120 -148 142 -30 10 -48 23 -48 33 0 48 -90 77 -138
43 -21 -15 -25 -15 -41 0 -10 9 -35 16 -59 16 -32 0 -45 -6 -61 -26z m113 -15
l26 -20 29 20 c16 12 39 21 50 21 25 0 61 -33 61 -56 0 -9 -31 -48 -70 -88
l-70 -71 -71 72 c-59 60 -69 76 -64 95 15 50 64 62 109 27z m-128 -110 c-4
-23 -13 -56 -21 -75 -18 -43 -19 -48 -7 -52 11 -3 52 88 52 114 0 17 1 17 16
2 37 -36 -19 -163 -93 -212 -41 -27 -130 -49 -139 -35 -8 13 5 29 22 29 19 0
91 36 99 51 15 23 -7 21 -54 -4 -55 -30 -71 -33 -71 -14 0 8 18 22 41 32 54
25 105 86 126 152 20 63 38 71 29 12z m335 -4 c16 -65 60 -120 124 -156 59
-33 73 -55 28 -45 -86 21 -163 108 -178 204 -9 58 11 56 26 -3z m-381 23 c-1
-49 -97 -168 -135 -168 -22 0 -18 19 15 77 37 64 120 127 120 91z m457 -17
c43 -31 77 -79 88 -123 10 -40 -12 -36 -65 9 -52 45 -101 143 -72 143 5 0 27
-13 49 -29z m-95 -106 c29 -54 119 -125 160 -125 7 0 20 -5 28 -10 26 -17 -7
-28 -57 -19 -91 17 -161 85 -183 179 -10 41 -10 54 1 66 11 14 14 11 24 -23 6
-21 19 -51 27 -68z m-161 -5 c8 0 28 14 44 30 l29 30 14 -47 c21 -75 64 -126
136 -164 l38 -20 -20 -22 c-11 -12 -25 -35 -31 -50 -14 -36 -15 -327 -1 -327
6 0 10 54 10 142 0 121 3 148 20 182 20 42 54 71 70 61 12 -7 13 -75 2 -91 -4
-6 -14 -13 -23 -16 -20 -8 -31 -60 -23 -103 5 -27 2 -33 -15 -38 -43 -11 -18
-83 40 -113 28 -14 30 -18 27 -67 l-3 -52 -45 0 c-39 0 -45 3 -48 23 -2 12 -7
22 -12 22 -5 0 -10 -10 -12 -22 -3 -22 -7 -23 -93 -23 l-90 0 0 110 0 110 68
3 67 3 0 99 0 100 -90 0 c-110 0 -121 -18 -12 -22 l77 -3 3 -77 3 -78 -131 0
-131 0 3 78 c3 71 5 77 26 80 35 5 26 22 -13 22 l-35 0 0 -100 0 -99 68 -3 67
-3 0 -110 0 -110 -90 0 -90 0 -5 210 c-5 211 -7 222 -42 261 -19 21 -19 21 35
52 62 35 114 104 124 165 l6 38 31 -30 c18 -17 39 -31 47 -31z m-344 -232 c-2
-13 -4 -5 -4 17 -1 22 1 32 4 23 2 -10 2 -28 0 -40z m70 37 c44 -31 54 -85 51
-285 l-3 -185 -42 -3 -43 -3 0 59 c0 53 3 60 24 70 54 25 75 104 29 110 -19 3
-21 6 -12 30 15 38 1 103 -22 109 -16 4 -19 15 -19 59 0 58 4 62 37 39z m633
-20 c0 -13 -4 -27 -10 -30 -6 -4 -10 8 -10 30 0 22 4 34 10 30 6 -3 10 -17 10
-30z m-698 -80 c0 -5 -5 -11 -11 -13 -6 -2 -11 4 -11 13 0 9 5 15 11 13 6 -2
11 -8 11 -13z m703 6 c7 -12 -12 -24 -25 -16 -11 7 -4 25 10 25 5 0 11 -4 15
-9z m-730 -41 c3 -5 -1 -10 -9 -10 -8 0 -18 5 -21 10 -3 6 1 10 9 10 8 0 18
-4 21 -10z m65 0 c0 -5 -7 -10 -16 -10 -8 0 -12 5 -9 10 3 6 10 10 16 10 5 0
9 -4 9 -10z m625 0 c3 -5 2 -10 -4 -10 -5 0 -13 5 -16 10 -3 6 -2 10 4 10 5 0
13 -4 16 -10z m75 5 c0 -2 -10 -10 -22 -16 -21 -11 -22 -11 -9 4 13 16 31 23
31 12z m-765 -65 c19 -36 19 -50 1 -50 -18 0 -33 19 -41 53 -10 38 20 37 40
-3z m75 14 c0 -23 -20 -55 -31 -49 -13 9 -11 39 3 53 17 17 28 15 28 -4z m620
-16 c24 -39 25 -48 6 -48 -18 0 -46 38 -46 62 0 28 18 21 40 -14z m80 28 c0
-14 -24 -66 -30 -66 -17 0 -20 45 -3 58 16 11 33 16 33 8z m-680 -135 c-15
-30 -40 -27 -40 4 0 17 7 28 23 34 26 10 34 -7 17 -38z m578 26 c20 -15 15
-47 -8 -47 -20 0 -40 27 -40 54 0 16 22 13 48 -7z m-700 1 c17 -17 15 -48 -2
-48 -14 0 -46 36 -46 52 0 12 35 9 48 -4z m832 4 c0 -16 -32 -52 -46 -52 -17
0 -19 31 -2 48 13 13 48 16 48 4z m-783 -155 c-2 -28 -3 -5 -3 53 0 58 1 81 3
53 2 -29 2 -77 0 -106z m703 58 c0 -57 -4 -95 -10 -95 -6 0 -10 38 -10 95 0
57 4 95 10 95 6 0 10 -38 10 -95z m88 -142 c3 -10 -90 -13 -442 -13 -391 0
-446 2 -446 15 0 13 53 15 442 13 342 -2 442 -6 446 -15z"/>
<path d="M408 969 c-33 -19 -20 -52 42 -114 l60 -59 60 59 c63 63 75 96 41
115 -28 15 -36 13 -70 -16 l-31 -26 -31 26 c-33 28 -45 31 -71 15z m57 -39
c24 -26 63 -25 91 1 28 26 60 19 45 -8 -5 -10 -28 -36 -51 -58 l-41 -40 -50
52 c-47 50 -55 73 -25 73 7 0 21 -9 31 -20z"/>
<path d="M420 430 c0 -6 37 -10 90 -10 53 0 90 4 90 10 0 6 -37 10 -90 10 -53
0 -90 -4 -90 -10z"/>
<path d="M463 388 c2 -8 21 -13 47 -13 26 0 45 5 48 13 2 8 -11 12 -48 12 -37
0 -50 -4 -47 -12z"/>
</g>
</svg>
